ISO-10303-21;
HEADER;
/* Generated by software containing ST-Developer
 * from STEP Tools, Inc. (www.steptools.com) 
 */
/* OPTION: using custom renumber hook */

FILE_DESCRIPTION(
/* description */ ('STEP AP242 Edition 2',
'CAx-IF Rec.Pracs.---Representation and Presentation of Product Manufa
cturing Information (PMI)---4.0---2014-10-13',
'CAx-IF Rec.Pracs.---3D Tessellated Geometry---0.4---2014-09-14','2;1',
'CAx-IF Rec.Pracs.---User Defined Attributes---1.5---2016-08-15'),
/* implementation_level */ '2;1');

FILE_NAME(
/* name */ 'Part Studio 3',
/* time_stamp */ '2026-08-02T01:26:09Z',
/* author */ (''),
/* organization */ (''),
/* preprocessor_version */ 'ST-DEVELOPER v20',
/* originating_system */ 'ONSHAPE BY PTC INC, 1.218',
/* authorisation */ '  ');

FILE_SCHEMA (('AP242_MANAGED_MODEL_BASED_3D_ENGINEERING_MIM_LF { 1 0 10303 442 3 1 4 }'));
ENDSEC;

DATA;
#10=SHAPE_REPRESENTATION_RELATIONSHIP('','',#301,#11);
#11=ADVANCED_BREP_SHAPE_REPRESENTATION('',(#299),#517);
#12=CIRCLE('',#305,0.004);
#13=CIRCLE('',#306,0.004);
#14=CIRCLE('',#309,0.004);
#15=CIRCLE('',#310,0.004);
#16=CIRCLE('',#313,0.004);
#17=CIRCLE('',#314,0.004);
#18=CIRCLE('',#317,0.004);
#19=CIRCLE('',#318,0.004);
#20=CIRCLE('',#321,0.0076);
#21=CIRCLE('',#322,0.0016);
#22=CIRCLE('',#323,0.0016);
#23=CIRCLE('',#324,0.0016);
#24=CIRCLE('',#325,0.0016);
#25=CIRCLE('',#327,0.0016);
#26=CIRCLE('',#330,0.0016);
#27=CIRCLE('',#333,0.0016);
#28=CIRCLE('',#336,0.0016);
#29=CIRCLE('',#339,0.0076);
#30=CYLINDRICAL_SURFACE('',#304,0.004);
#31=CYLINDRICAL_SURFACE('',#308,0.004);
#32=CYLINDRICAL_SURFACE('',#312,0.004);
#33=CYLINDRICAL_SURFACE('',#316,0.004);
#34=CYLINDRICAL_SURFACE('',#326,0.0016);
#35=CYLINDRICAL_SURFACE('',#329,0.0016);
#36=CYLINDRICAL_SURFACE('',#332,0.0016);
#37=CYLINDRICAL_SURFACE('',#335,0.0016);
#38=CYLINDRICAL_SURFACE('',#338,0.0076);
#39=ORIENTED_EDGE('',*,*,#107,.F.);
#40=ORIENTED_EDGE('',*,*,#108,.F.);
#41=ORIENTED_EDGE('',*,*,#109,.T.);
#42=ORIENTED_EDGE('',*,*,#110,.T.);
#43=ORIENTED_EDGE('',*,*,#111,.T.);
#44=ORIENTED_EDGE('',*,*,#112,.F.);
#45=ORIENTED_EDGE('',*,*,#113,.F.);
#46=ORIENTED_EDGE('',*,*,#108,.T.);
#47=ORIENTED_EDGE('',*,*,#114,.T.);
#48=ORIENTED_EDGE('',*,*,#115,.F.);
#49=ORIENTED_EDGE('',*,*,#116,.F.);
#50=ORIENTED_EDGE('',*,*,#112,.T.);
#51=ORIENTED_EDGE('',*,*,#117,.T.);
#52=ORIENTED_EDGE('',*,*,#118,.F.);
#53=ORIENTED_EDGE('',*,*,#119,.F.);
#54=ORIENTED_EDGE('',*,*,#115,.T.);
#55=ORIENTED_EDGE('',*,*,#120,.T.);
#56=ORIENTED_EDGE('',*,*,#121,.F.);
#57=ORIENTED_EDGE('',*,*,#122,.F.);
#58=ORIENTED_EDGE('',*,*,#118,.T.);
#59=ORIENTED_EDGE('',*,*,#123,.T.);
#60=ORIENTED_EDGE('',*,*,#124,.F.);
#61=ORIENTED_EDGE('',*,*,#125,.F.);
#62=ORIENTED_EDGE('',*,*,#121,.T.);
#63=ORIENTED_EDGE('',*,*,#126,.F.);
#64=ORIENTED_EDGE('',*,*,#127,.F.);
#65=ORIENTED_EDGE('',*,*,#128,.T.);
#66=ORIENTED_EDGE('',*,*,#124,.T.);
#67=ORIENTED_EDGE('',*,*,#129,.T.);
#68=ORIENTED_EDGE('',*,*,#110,.F.);
#69=ORIENTED_EDGE('',*,*,#130,.F.);
#70=ORIENTED_EDGE('',*,*,#127,.T.);
#71=ORIENTED_EDGE('',*,*,#109,.F.);
#72=ORIENTED_EDGE('',*,*,#113,.T.);
#73=ORIENTED_EDGE('',*,*,#116,.T.);
#74=ORIENTED_EDGE('',*,*,#119,.T.);
#75=ORIENTED_EDGE('',*,*,#122,.T.);
#76=ORIENTED_EDGE('',*,*,#125,.T.);
#77=ORIENTED_EDGE('',*,*,#128,.F.);
#78=ORIENTED_EDGE('',*,*,#130,.T.);
#79=ORIENTED_EDGE('',*,*,#131,.F.);
#80=ORIENTED_EDGE('',*,*,#132,.T.);
#81=ORIENTED_EDGE('',*,*,#133,.T.);
#82=ORIENTED_EDGE('',*,*,#134,.T.);
#83=ORIENTED_EDGE('',*,*,#135,.T.);
#84=ORIENTED_EDGE('',*,*,#107,.T.);
#85=ORIENTED_EDGE('',*,*,#129,.F.);
#86=ORIENTED_EDGE('',*,*,#126,.T.);
#87=ORIENTED_EDGE('',*,*,#123,.F.);
#88=ORIENTED_EDGE('',*,*,#120,.F.);
#89=ORIENTED_EDGE('',*,*,#117,.F.);
#90=ORIENTED_EDGE('',*,*,#114,.F.);
#91=ORIENTED_EDGE('',*,*,#111,.F.);
#92=ORIENTED_EDGE('',*,*,#136,.T.);
#93=ORIENTED_EDGE('',*,*,#135,.F.);
#94=ORIENTED_EDGE('',*,*,#136,.F.);
#95=ORIENTED_EDGE('',*,*,#137,.T.);
#96=ORIENTED_EDGE('',*,*,#134,.F.);
#97=ORIENTED_EDGE('',*,*,#137,.F.);
#98=ORIENTED_EDGE('',*,*,#138,.T.);
#99=ORIENTED_EDGE('',*,*,#133,.F.);
#100=ORIENTED_EDGE('',*,*,#138,.F.);
#101=ORIENTED_EDGE('',*,*,#139,.T.);
#102=ORIENTED_EDGE('',*,*,#132,.F.);
#103=ORIENTED_EDGE('',*,*,#139,.F.);
#104=ORIENTED_EDGE('',*,*,#140,.F.);
#105=ORIENTED_EDGE('',*,*,#131,.T.);
#106=ORIENTED_EDGE('',*,*,#140,.T.);
#107=EDGE_CURVE('',#141,#142,#167,.T.);
#108=EDGE_CURVE('',#143,#141,#168,.T.);
#109=EDGE_CURVE('',#143,#144,#169,.T.);
#110=EDGE_CURVE('',#144,#142,#170,.T.);
#111=EDGE_CURVE('',#141,#145,#12,.T.);
#112=EDGE_CURVE('',#146,#145,#171,.T.);
#113=EDGE_CURVE('',#143,#146,#13,.T.);
#114=EDGE_CURVE('',#145,#147,#172,.T.);
#115=EDGE_CURVE('',#148,#147,#173,.T.);
#116=EDGE_CURVE('',#146,#148,#174,.T.);
#117=EDGE_CURVE('',#147,#149,#14,.T.);
#118=EDGE_CURVE('',#150,#149,#175,.T.);
#119=EDGE_CURVE('',#148,#150,#15,.T.);
#120=EDGE_CURVE('',#149,#151,#176,.T.);
#121=EDGE_CURVE('',#152,#151,#177,.T.);
#122=EDGE_CURVE('',#150,#152,#178,.T.);
#123=EDGE_CURVE('',#151,#153,#16,.T.);
#124=EDGE_CURVE('',#154,#153,#179,.T.);
#125=EDGE_CURVE('',#152,#154,#17,.T.);
#126=EDGE_CURVE('',#155,#153,#180,.T.);
#127=EDGE_CURVE('',#156,#155,#181,.T.);
#128=EDGE_CURVE('',#156,#154,#182,.T.);
#129=EDGE_CURVE('',#155,#142,#18,.T.);
#130=EDGE_CURVE('',#156,#144,#19,.T.);
#131=EDGE_CURVE('',#157,#157,#20,.T.);
#132=EDGE_CURVE('',#158,#158,#21,.T.);
#133=EDGE_CURVE('',#159,#159,#22,.T.);
#134=EDGE_CURVE('',#160,#160,#23,.T.);
#135=EDGE_CURVE('',#161,#161,#24,.T.);
#136=EDGE_CURVE('',#162,#162,#25,.T.);
#137=EDGE_CURVE('',#163,#163,#26,.T.);
#138=EDGE_CURVE('',#164,#164,#27,.T.);
#139=EDGE_CURVE('',#165,#165,#28,.T.);
#140=EDGE_CURVE('',#166,#166,#29,.T.);
#141=VERTEX_POINT('',#438);
#142=VERTEX_POINT('',#439);
#143=VERTEX_POINT('',#441);
#144=VERTEX_POINT('',#443);
#145=VERTEX_POINT('',#447);
#146=VERTEX_POINT('',#449);
#147=VERTEX_POINT('',#453);
#148=VERTEX_POINT('',#455);
#149=VERTEX_POINT('',#459);
#150=VERTEX_POINT('',#461);
#151=VERTEX_POINT('',#465);
#152=VERTEX_POINT('',#467);
#153=VERTEX_POINT('',#471);
#154=VERTEX_POINT('',#473);
#155=VERTEX_POINT('',#477);
#156=VERTEX_POINT('',#479);
#157=VERTEX_POINT('',#487);
#158=VERTEX_POINT('',#489);
#159=VERTEX_POINT('',#491);
#160=VERTEX_POINT('',#493);
#161=VERTEX_POINT('',#495);
#162=VERTEX_POINT('',#498);
#163=VERTEX_POINT('',#502);
#164=VERTEX_POINT('',#506);
#165=VERTEX_POINT('',#510);
#166=VERTEX_POINT('',#514);
#167=LINE('',#437,#183);
#168=LINE('',#440,#184);
#169=LINE('',#442,#185);
#170=LINE('',#444,#186);
#171=LINE('',#448,#187);
#172=LINE('',#452,#188);
#173=LINE('',#454,#189);
#174=LINE('',#456,#190);
#175=LINE('',#460,#191);
#176=LINE('',#464,#192);
#177=LINE('',#466,#193);
#178=LINE('',#468,#194);
#179=LINE('',#472,#195);
#180=LINE('',#476,#196);
#181=LINE('',#478,#197);
#182=LINE('',#480,#198);
#183=VECTOR('',#345,1.);
#184=VECTOR('',#346,1.);
#185=VECTOR('',#347,1.);
#186=VECTOR('',#348,1.);
#187=VECTOR('',#353,1.);
#188=VECTOR('',#358,1.);
#189=VECTOR('',#359,1.);
#190=VECTOR('',#360,1.);
#191=VECTOR('',#365,1.);
#192=VECTOR('',#370,1.);
#193=VECTOR('',#371,1.);
#194=VECTOR('',#372,1.);
#195=VECTOR('',#377,1.);
#196=VECTOR('',#382,1.);
#197=VECTOR('',#383,1.);
#198=VECTOR('',#384,1.);
#199=EDGE_LOOP('',(#39,#40,#41,#42));
#200=EDGE_LOOP('',(#43,#44,#45,#46));
#201=EDGE_LOOP('',(#47,#48,#49,#50));
#202=EDGE_LOOP('',(#51,#52,#53,#54));
#203=EDGE_LOOP('',(#55,#56,#57,#58));
#204=EDGE_LOOP('',(#59,#60,#61,#62));
#205=EDGE_LOOP('',(#63,#64,#65,#66));
#206=EDGE_LOOP('',(#67,#68,#69,#70));
#207=EDGE_LOOP('',(#71,#72,#73,#74,#75,#76,#77,#78));
#208=EDGE_LOOP('',(#79));
#209=EDGE_LOOP('',(#80));
#210=EDGE_LOOP('',(#81));
#211=EDGE_LOOP('',(#82));
#212=EDGE_LOOP('',(#83));
#213=EDGE_LOOP('',(#84,#85,#86,#87,#88,#89,#90,#91));
#214=EDGE_LOOP('',(#92));
#215=EDGE_LOOP('',(#93));
#216=EDGE_LOOP('',(#94));
#217=EDGE_LOOP('',(#95));
#218=EDGE_LOOP('',(#96));
#219=EDGE_LOOP('',(#97));
#220=EDGE_LOOP('',(#98));
#221=EDGE_LOOP('',(#99));
#222=EDGE_LOOP('',(#100));
#223=EDGE_LOOP('',(#101));
#224=EDGE_LOOP('',(#102));
#225=EDGE_LOOP('',(#103));
#226=EDGE_LOOP('',(#104));
#227=EDGE_LOOP('',(#105));
#228=EDGE_LOOP('',(#106));
#229=FACE_BOUND('',#199,.T.);
#230=FACE_BOUND('',#200,.T.);
#231=FACE_BOUND('',#201,.T.);
#232=FACE_BOUND('',#202,.T.);
#233=FACE_BOUND('',#203,.T.);
#234=FACE_BOUND('',#204,.T.);
#235=FACE_BOUND('',#205,.T.);
#236=FACE_BOUND('',#206,.T.);
#237=FACE_BOUND('',#207,.T.);
#238=FACE_BOUND('',#208,.T.);
#239=FACE_BOUND('',#209,.T.);
#240=FACE_BOUND('',#210,.T.);
#241=FACE_BOUND('',#211,.T.);
#242=FACE_BOUND('',#212,.T.);
#243=FACE_BOUND('',#213,.T.);
#244=FACE_BOUND('',#214,.T.);
#245=FACE_BOUND('',#215,.T.);
#246=FACE_BOUND('',#216,.T.);
#247=FACE_BOUND('',#217,.T.);
#248=FACE_BOUND('',#218,.T.);
#249=FACE_BOUND('',#219,.T.);
#250=FACE_BOUND('',#220,.T.);
#251=FACE_BOUND('',#221,.T.);
#252=FACE_BOUND('',#222,.T.);
#253=FACE_BOUND('',#223,.T.);
#254=FACE_BOUND('',#224,.T.);
#255=FACE_BOUND('',#225,.T.);
#256=FACE_BOUND('',#226,.T.);
#257=FACE_BOUND('',#227,.T.);
#258=FACE_BOUND('',#228,.T.);
#259=PLANE('',#303);
#260=PLANE('',#307);
#261=PLANE('',#311);
#262=PLANE('',#315);
#263=PLANE('',#319);
#264=PLANE('',#320);
#265=PLANE('',#328);
#266=PLANE('',#331);
#267=PLANE('',#334);
#268=PLANE('',#337);
#269=PLANE('',#340);
#270=ADVANCED_FACE('',(#229),#259,.T.);
#271=ADVANCED_FACE('',(#230),#30,.T.);
#272=ADVANCED_FACE('',(#231),#260,.F.);
#273=ADVANCED_FACE('',(#232),#31,.T.);
#274=ADVANCED_FACE('',(#233),#261,.F.);
#275=ADVANCED_FACE('',(#234),#32,.T.);
#276=ADVANCED_FACE('',(#235),#262,.T.);
#277=ADVANCED_FACE('',(#236),#33,.T.);
#278=ADVANCED_FACE('',(#237),#263,.T.);
#279=ADVANCED_FACE('',(#238,#239,#240,#241,#242,#243),#264,.F.);
#280=ADVANCED_FACE('',(#244,#245),#34,.F.);
#281=ADVANCED_FACE('',(#246),#265,.F.);
#282=ADVANCED_FACE('',(#247,#248),#35,.F.);
#283=ADVANCED_FACE('',(#249),#266,.F.);
#284=ADVANCED_FACE('',(#250,#251),#36,.F.);
#285=ADVANCED_FACE('',(#252),#267,.F.);
#286=ADVANCED_FACE('',(#253,#254),#37,.F.);
#287=ADVANCED_FACE('',(#255),#268,.F.);
#288=ADVANCED_FACE('',(#256,#257),#38,.F.);
#289=ADVANCED_FACE('',(#258),#269,.T.);
#290=CLOSED_SHELL('',(#270,#271,#272,#273,#274,#275,#276,#277,#278,#279,
#280,#281,#282,#283,#284,#285,#286,#287,#288,#289));
#291=STYLED_ITEM('',(#292),#299);
#292=PRESENTATION_STYLE_ASSIGNMENT((#293));
#293=SURFACE_STYLE_USAGE(.BOTH.,#294);
#294=SURFACE_SIDE_STYLE('',(#295));
#295=SURFACE_STYLE_FILL_AREA(#296);
#296=FILL_AREA_STYLE('',(#297));
#297=FILL_AREA_STYLE_COLOUR('',#298);
#298=COLOUR_RGB('',0.615686274509804,0.811764705882353,0.929411764705882);
#299=MANIFOLD_SOLID_BREP('Part 1',#290);
#300=SHAPE_DEFINITION_REPRESENTATION(#522,#301);
#301=SHAPE_REPRESENTATION('Part 1',(#302),#517);
#302=AXIS2_PLACEMENT_3D('',#435,#341,#342);
#303=AXIS2_PLACEMENT_3D('',#436,#343,#344);
#304=AXIS2_PLACEMENT_3D('',#445,#349,#350);
#305=AXIS2_PLACEMENT_3D('',#446,#351,#352);
#306=AXIS2_PLACEMENT_3D('',#450,#354,#355);
#307=AXIS2_PLACEMENT_3D('',#451,#356,#357);
#308=AXIS2_PLACEMENT_3D('',#457,#361,#362);
#309=AXIS2_PLACEMENT_3D('',#458,#363,#364);
#310=AXIS2_PLACEMENT_3D('',#462,#366,#367);
#311=AXIS2_PLACEMENT_3D('',#463,#368,#369);
#312=AXIS2_PLACEMENT_3D('',#469,#373,#374);
#313=AXIS2_PLACEMENT_3D('',#470,#375,#376);
#314=AXIS2_PLACEMENT_3D('',#474,#378,#379);
#315=AXIS2_PLACEMENT_3D('',#475,#380,#381);
#316=AXIS2_PLACEMENT_3D('',#481,#385,#386);
#317=AXIS2_PLACEMENT_3D('',#482,#387,#388);
#318=AXIS2_PLACEMENT_3D('',#483,#389,#390);
#319=AXIS2_PLACEMENT_3D('',#484,#391,#392);
#320=AXIS2_PLACEMENT_3D('',#485,#393,#394);
#321=AXIS2_PLACEMENT_3D('',#486,#395,#396);
#322=AXIS2_PLACEMENT_3D('',#488,#397,#398);
#323=AXIS2_PLACEMENT_3D('',#490,#399,#400);
#324=AXIS2_PLACEMENT_3D('',#492,#401,#402);
#325=AXIS2_PLACEMENT_3D('',#494,#403,#404);
#326=AXIS2_PLACEMENT_3D('',#496,#405,#406);
#327=AXIS2_PLACEMENT_3D('',#497,#407,#408);
#328=AXIS2_PLACEMENT_3D('',#499,#409,#410);
#329=AXIS2_PLACEMENT_3D('',#500,#411,#412);
#330=AXIS2_PLACEMENT_3D('',#501,#413,#414);
#331=AXIS2_PLACEMENT_3D('',#503,#415,#416);
#332=AXIS2_PLACEMENT_3D('',#504,#417,#418);
#333=AXIS2_PLACEMENT_3D('',#505,#419,#420);
#334=AXIS2_PLACEMENT_3D('',#507,#421,#422);
#335=AXIS2_PLACEMENT_3D('',#508,#423,#424);
#336=AXIS2_PLACEMENT_3D('',#509,#425,#426);
#337=AXIS2_PLACEMENT_3D('',#511,#427,#428);
#338=AXIS2_PLACEMENT_3D('',#512,#429,#430);
#339=AXIS2_PLACEMENT_3D('',#513,#431,#432);
#340=AXIS2_PLACEMENT_3D('',#515,#433,#434);
#341=DIRECTION('',(0.,0.,1.));
#342=DIRECTION('',(1.,0.,0.));
#343=DIRECTION('',(0.,1.,0.));
#344=DIRECTION('',(0.,0.,1.));
#345=DIRECTION('',(1.,0.,0.));
#346=DIRECTION('',(0.,0.,-1.));
#347=DIRECTION('',(1.,0.,0.));
#348=DIRECTION('',(0.,0.,-1.));
#349=DIRECTION('',(0.,0.,-1.));
#350=DIRECTION('',(-1.,0.,0.));
#351=DIRECTION('',(0.,0.,1.));
#352=DIRECTION('',(1.,0.,0.));
#353=DIRECTION('',(0.,0.,-1.));
#354=DIRECTION('',(0.,0.,1.));
#355=DIRECTION('',(1.,0.,0.));
#356=DIRECTION('',(1.,-2.89120579329468E-16,0.));
#357=DIRECTION('',(2.89120579329468E-16,1.,0.));
#358=DIRECTION('',(-2.89120579329468E-16,-1.,0.));
#359=DIRECTION('',(0.,0.,-1.));
#360=DIRECTION('',(-2.89120579329468E-16,-1.,0.));
#361=DIRECTION('',(0.,0.,-1.));
#362=DIRECTION('',(-1.,0.,0.));
#363=DIRECTION('',(0.,0.,1.));
#364=DIRECTION('',(1.,0.,0.));
#365=DIRECTION('',(0.,0.,-1.));
#366=DIRECTION('',(0.,0.,1.));
#367=DIRECTION('',(1.,0.,0.));
#368=DIRECTION('',(0.,1.,0.));
#369=DIRECTION('',(0.,0.,1.));
#370=DIRECTION('',(1.,0.,0.));
#371=DIRECTION('',(0.,0.,-1.));
#372=DIRECTION('',(1.,0.,0.));
#373=DIRECTION('',(0.,0.,-1.));
#374=DIRECTION('',(-1.,0.,0.));
#375=DIRECTION('',(0.,0.,1.));
#376=DIRECTION('',(1.,0.,0.));
#377=DIRECTION('',(0.,0.,-1.));
#378=DIRECTION('',(0.,0.,1.));
#379=DIRECTION('',(1.,0.,0.));
#380=DIRECTION('',(1.,-2.89120579329468E-16,0.));
#381=DIRECTION('',(2.89120579329468E-16,1.,0.));
#382=DIRECTION('',(-2.89120579329468E-16,-1.,0.));
#383=DIRECTION('',(0.,0.,-1.));
#384=DIRECTION('',(-2.89120579329468E-16,-1.,0.));
#385=DIRECTION('',(0.,0.,-1.));
#386=DIRECTION('',(-1.,0.,0.));
#387=DIRECTION('',(0.,0.,1.));
#388=DIRECTION('',(1.,0.,0.));
#389=DIRECTION('',(0.,0.,1.));
#390=DIRECTION('',(1.,0.,0.));
#391=DIRECTION('',(0.,0.,1.));
#392=DIRECTION('',(1.,0.,0.));
#393=DIRECTION('',(0.,0.,1.));
#394=DIRECTION('',(1.,0.,0.));
#395=DIRECTION('',(0.,0.,-1.));
#396=DIRECTION('',(-1.,0.,0.));
#397=DIRECTION('',(0.,0.,1.));
#398=DIRECTION('',(1.,0.,0.));
#399=DIRECTION('',(0.,0.,1.));
#400=DIRECTION('',(1.,0.,0.));
#401=DIRECTION('',(0.,0.,1.));
#402=DIRECTION('',(1.,0.,0.));
#403=DIRECTION('',(0.,0.,1.));
#404=DIRECTION('',(1.,0.,0.));
#405=DIRECTION('',(0.,0.,-1.));
#406=DIRECTION('',(-1.,0.,0.));
#407=DIRECTION('',(0.,0.,1.));
#408=DIRECTION('',(1.,0.,0.));
#409=DIRECTION('',(0.,0.,1.));
#410=DIRECTION('',(1.,0.,0.));
#411=DIRECTION('',(0.,0.,-1.));
#412=DIRECTION('',(-1.,0.,0.));
#413=DIRECTION('',(0.,0.,1.));
#414=DIRECTION('',(1.,0.,0.));
#415=DIRECTION('',(0.,0.,1.));
#416=DIRECTION('',(1.,0.,0.));
#417=DIRECTION('',(0.,0.,-1.));
#418=DIRECTION('',(-1.,0.,0.));
#419=DIRECTION('',(0.,0.,1.));
#420=DIRECTION('',(1.,0.,0.));
#421=DIRECTION('',(0.,0.,1.));
#422=DIRECTION('',(1.,0.,0.));
#423=DIRECTION('',(0.,0.,-1.));
#424=DIRECTION('',(-1.,0.,0.));
#425=DIRECTION('',(0.,0.,1.));
#426=DIRECTION('',(1.,0.,0.));
#427=DIRECTION('',(0.,0.,1.));
#428=DIRECTION('',(1.,0.,0.));
#429=DIRECTION('',(0.,0.,-1.));
#430=DIRECTION('',(-1.,0.,0.));
#431=DIRECTION('',(0.,0.,-1.));
#432=DIRECTION('',(-1.,0.,0.));
#433=DIRECTION('',(0.,0.,-1.));
#434=DIRECTION('',(1.,0.,0.));
#435=CARTESIAN_POINT('',(0.,0.,0.));
#436=CARTESIAN_POINT('',(3.46944695195361E-18,0.01,0.0025));
#437=CARTESIAN_POINT('',(3.46944695195361E-18,0.01,0.));
#438=CARTESIAN_POINT('',(-0.006,0.01,0.));
#439=CARTESIAN_POINT('',(0.006,0.01,0.));
#440=CARTESIAN_POINT('',(-0.006,0.01,0.0025));
#441=CARTESIAN_POINT('',(-0.006,0.01,0.0025));
#442=CARTESIAN_POINT('',(3.46944695195361E-18,0.01,0.0025));
#443=CARTESIAN_POINT('',(0.006,0.01,0.0025));
#444=CARTESIAN_POINT('',(0.006,0.01,0.0025));
#445=CARTESIAN_POINT('',(-0.006,0.006,0.0025));
#446=CARTESIAN_POINT('',(-0.006,0.006,0.));
#447=CARTESIAN_POINT('',(-0.01,0.006,0.));
#448=CARTESIAN_POINT('',(-0.01,0.006,0.0025));
#449=CARTESIAN_POINT('',(-0.01,0.006,0.0025));
#450=CARTESIAN_POINT('',(-0.006,0.006,0.0025));
#451=CARTESIAN_POINT('',(-0.01,0.,0.0025));
#452=CARTESIAN_POINT('',(-0.01,0.,0.));
#453=CARTESIAN_POINT('',(-0.01,-0.006,0.));
#454=CARTESIAN_POINT('',(-0.01,-0.006,0.0025));
#455=CARTESIAN_POINT('',(-0.01,-0.006,0.0025));
#456=CARTESIAN_POINT('',(-0.01,0.,0.0025));
#457=CARTESIAN_POINT('',(-0.006,-0.006,0.0025));
#458=CARTESIAN_POINT('',(-0.006,-0.006,0.));
#459=CARTESIAN_POINT('',(-0.006,-0.01,0.));
#460=CARTESIAN_POINT('',(-0.006,-0.01,0.0025));
#461=CARTESIAN_POINT('',(-0.006,-0.01,0.0025));
#462=CARTESIAN_POINT('',(-0.006,-0.006,0.0025));
#463=CARTESIAN_POINT('',(4.33680868994202E-18,-0.01,0.0025));
#464=CARTESIAN_POINT('',(4.33680868994202E-18,-0.01,0.));
#465=CARTESIAN_POINT('',(0.006,-0.01,0.));
#466=CARTESIAN_POINT('',(0.006,-0.01,0.0025));
#467=CARTESIAN_POINT('',(0.006,-0.01,0.0025));
#468=CARTESIAN_POINT('',(4.33680868994202E-18,-0.01,0.0025));
#469=CARTESIAN_POINT('',(0.006,-0.006,0.0025));
#470=CARTESIAN_POINT('',(0.006,-0.006,0.));
#471=CARTESIAN_POINT('',(0.01,-0.006,0.));
#472=CARTESIAN_POINT('',(0.01,-0.006,0.0025));
#473=CARTESIAN_POINT('',(0.01,-0.006,0.0025));
#474=CARTESIAN_POINT('',(0.006,-0.006,0.0025));
#475=CARTESIAN_POINT('',(0.01,0.,0.0025));
#476=CARTESIAN_POINT('',(0.01,0.,0.));
#477=CARTESIAN_POINT('',(0.01,0.006,0.));
#478=CARTESIAN_POINT('',(0.01,0.006,0.0025));
#479=CARTESIAN_POINT('',(0.01,0.006,0.0025));
#480=CARTESIAN_POINT('',(0.01,0.,0.0025));
#481=CARTESIAN_POINT('',(0.006,0.006,0.0025));
#482=CARTESIAN_POINT('',(0.006,0.006,0.));
#483=CARTESIAN_POINT('',(0.006,0.006,0.0025));
#484=CARTESIAN_POINT('',(0.,0.,0.0025));
#485=CARTESIAN_POINT('',(0.,0.,0.));
#486=CARTESIAN_POINT('',(0.,-4.65365783675994E-19,0.));
#487=CARTESIAN_POINT('',(-0.0076,-4.65365783675994E-19,0.));
#488=CARTESIAN_POINT('',(0.0069,0.0069,0.));
#489=CARTESIAN_POINT('',(0.0085,0.0069,0.));
#490=CARTESIAN_POINT('',(0.0069,-0.0069,0.));
#491=CARTESIAN_POINT('',(0.0085,-0.0069,0.));
#492=CARTESIAN_POINT('',(-0.0069,-0.0069,0.));
#493=CARTESIAN_POINT('',(-0.0053,-0.0069,0.));
#494=CARTESIAN_POINT('',(-0.0069,0.0069,0.));
#495=CARTESIAN_POINT('',(-0.0053,0.0069,0.));
#496=CARTESIAN_POINT('',(-0.0069,0.0069,0.0017));
#497=CARTESIAN_POINT('',(-0.0069,0.0069,0.0017));
#498=CARTESIAN_POINT('',(-0.0053,0.0069,0.0017));
#499=CARTESIAN_POINT('',(3.46944695195361E-18,0.,0.0017));
#500=CARTESIAN_POINT('',(-0.0069,-0.0069,0.0017));
#501=CARTESIAN_POINT('',(-0.0069,-0.0069,0.0017));
#502=CARTESIAN_POINT('',(-0.0053,-0.0069,0.0017));
#503=CARTESIAN_POINT('',(3.46944695195361E-18,0.,0.0017));
#504=CARTESIAN_POINT('',(0.0069,-0.0069,0.0017));
#505=CARTESIAN_POINT('',(0.0069,-0.0069,0.0017));
#506=CARTESIAN_POINT('',(0.0085,-0.0069,0.0017));
#507=CARTESIAN_POINT('',(3.46944695195361E-18,0.,0.0017));
#508=CARTESIAN_POINT('',(0.0069,0.0069,0.0017));
#509=CARTESIAN_POINT('',(0.0069,0.0069,0.0017));
#510=CARTESIAN_POINT('',(0.0085,0.0069,0.0017));
#511=CARTESIAN_POINT('',(3.46944695195361E-18,0.,0.0017));
#512=CARTESIAN_POINT('',(0.,-4.65365783675994E-19,0.0023));
#513=CARTESIAN_POINT('',(0.,-4.65365783675994E-19,0.0023));
#514=CARTESIAN_POINT('',(-0.0076,-4.65365783675994E-19,0.0023));
#515=CARTESIAN_POINT('',(3.46944695195361E-18,0.,0.0023));
#516=MECHANICAL_DESIGN_GEOMETRIC_PRESENTATION_REPRESENTATION('',(#291),
#517);
#517=(
GEOMETRIC_REPRESENTATION_CONTEXT(3)
GLOBAL_UNCERTAINTY_ASSIGNED_CONTEXT((#518))
GLOBAL_UNIT_ASSIGNED_CONTEXT((#521,#520,#519))
REPRESENTATION_CONTEXT('Part 1','TOP_LEVEL_ASSEMBLY_PART')
);
#518=UNCERTAINTY_MEASURE_WITH_UNIT(LENGTH_MEASURE(1.E-8),#521,
'DISTANCE_ACCURACY_VALUE','Maximum Tolerance applied to model');
#519=(
NAMED_UNIT(*)
SI_UNIT($,.STERADIAN.)
SOLID_ANGLE_UNIT()
);
#520=(
NAMED_UNIT(*)
PLANE_ANGLE_UNIT()
SI_UNIT($,.RADIAN.)
);
#521=(
LENGTH_UNIT()
NAMED_UNIT(*)
SI_UNIT($,.METRE.)
);
#522=PRODUCT_DEFINITION_SHAPE('','',#523);
#523=PRODUCT_DEFINITION('','',#525,#524);
#524=PRODUCT_DEFINITION_CONTEXT('',#531,'design');
#525=PRODUCT_DEFINITION_FORMATION_WITH_SPECIFIED_SOURCE('','',#527,
 .NOT_KNOWN.);
#526=PRODUCT_RELATED_PRODUCT_CATEGORY('','',(#527));
#527=PRODUCT('Part 1','Part 1','Part 1',(#529));
#528=PRODUCT_CATEGORY('','');
#529=PRODUCT_CONTEXT('',#531,'mechanical');
#530=APPLICATION_PROTOCOL_DEFINITION('international standard',
'ap242_managed_model_based_3d_engineering',2020,#531);
#531=APPLICATION_CONTEXT('managed model based 3d engineering');
ENDSEC;
END-ISO-10303-21;
